<mxfile host="app.diagrams.net" modified="2023-07-18T23:01:54.747Z" agent="Mozilla/5.0 (Windows NT 10.0; Win64; x64) AppleWebKit/537.36 (KHTML, like Gecko) Chrome/114.0.0.0 Safari/537.36 OPR/100.0.0.0" etag="LhTlJCmP8t_K_DclEpbY" version="21.6.1" type="github">
  <diagram id="C5RBs43oDa-KdzZeNtuy" name="Page-1">
    <mxGraphModel dx="1666" dy="485" grid="1" gridSize="10" guides="1" tooltips="1" connect="1" arrows="1" fold="1" page="1" pageScale="1" pageWidth="827" pageHeight="1169" math="0" shadow="0">
      <root>
        <mxCell id="WIyWlLk6GJQsqaUBKTNV-0" />
        <mxCell id="WIyWlLk6GJQsqaUBKTNV-1" parent="WIyWlLk6GJQsqaUBKTNV-0" />
        <mxCell id="sauhUsJSyTyRgv_FoqiW-6" value="" style="edgeStyle=orthogonalEdgeStyle;rounded=0;orthogonalLoop=1;jettySize=auto;html=1;" edge="1" parent="WIyWlLk6GJQsqaUBKTNV-1" source="sauhUsJSyTyRgv_FoqiW-0" target="sauhUsJSyTyRgv_FoqiW-5">
          <mxGeometry relative="1" as="geometry" />
        </mxCell>
        <mxCell id="sauhUsJSyTyRgv_FoqiW-0" value="«interface»&lt;br&gt;&lt;b&gt;SistemaClinicaVeterinaria&lt;/b&gt;" style="html=1;whiteSpace=wrap;direction=west;" vertex="1" parent="WIyWlLk6GJQsqaUBKTNV-1">
          <mxGeometry x="290" y="10" width="160" height="50" as="geometry" />
        </mxCell>
        <mxCell id="sauhUsJSyTyRgv_FoqiW-11" style="edgeStyle=orthogonalEdgeStyle;rounded=0;orthogonalLoop=1;jettySize=auto;html=1;entryX=0.5;entryY=0;entryDx=0;entryDy=0;" edge="1" parent="WIyWlLk6GJQsqaUBKTNV-1" source="sauhUsJSyTyRgv_FoqiW-5" target="sauhUsJSyTyRgv_FoqiW-7">
          <mxGeometry relative="1" as="geometry" />
        </mxCell>
        <object label="*Crear nuevo paciente&lt;br&gt;*Realizar consulta&lt;br&gt;*Listad dueños-mascotas&lt;br&gt;*Ingreso por fecha" id="sauhUsJSyTyRgv_FoqiW-5">
          <mxCell style="whiteSpace=wrap;html=1;align=left;" vertex="1" parent="WIyWlLk6GJQsqaUBKTNV-1">
            <mxGeometry x="290" y="60" width="160" height="70" as="geometry" />
          </mxCell>
        </object>
        <mxCell id="sauhUsJSyTyRgv_FoqiW-7" value="SistemaClinicaVeterinariaImpl" style="swimlane;fontStyle=1;align=center;verticalAlign=top;childLayout=stackLayout;horizontal=1;startSize=26;horizontalStack=0;resizeParent=1;resizeParentMax=0;resizeLast=0;collapsible=1;marginBottom=0;whiteSpace=wrap;html=1;" vertex="1" parent="WIyWlLk6GJQsqaUBKTNV-1">
          <mxGeometry x="270" y="170" width="200" height="128" as="geometry">
            <mxRectangle x="270" y="170" width="210" height="30" as="alternateBounds" />
          </mxGeometry>
        </mxCell>
        <mxCell id="sauhUsJSyTyRgv_FoqiW-8" value="- listaPacientes: ArrayList&lt;br&gt;- listaConsultas: LinkedList&lt;br&gt;- listaDueños: ArrayList&lt;br&gt;- listaMedicamentos: ArrayList" style="text;strokeColor=none;fillColor=none;align=left;verticalAlign=top;spacingLeft=4;spacingRight=4;overflow=hidden;rotatable=0;points=[[0,0.5],[1,0.5]];portConstraint=eastwest;whiteSpace=wrap;html=1;" vertex="1" parent="sauhUsJSyTyRgv_FoqiW-7">
          <mxGeometry y="26" width="200" height="94" as="geometry" />
        </mxCell>
        <mxCell id="sauhUsJSyTyRgv_FoqiW-9" value="" style="line;strokeWidth=1;fillColor=none;align=left;verticalAlign=middle;spacingTop=-1;spacingLeft=3;spacingRight=3;rotatable=0;labelPosition=right;points=[];portConstraint=eastwest;strokeColor=inherit;" vertex="1" parent="sauhUsJSyTyRgv_FoqiW-7">
          <mxGeometry y="120" width="200" height="8" as="geometry" />
        </mxCell>
        <mxCell id="sauhUsJSyTyRgv_FoqiW-24" style="edgeStyle=orthogonalEdgeStyle;rounded=0;orthogonalLoop=1;jettySize=auto;html=1;entryX=0.5;entryY=0;entryDx=0;entryDy=0;" edge="1" parent="WIyWlLk6GJQsqaUBKTNV-1" source="sauhUsJSyTyRgv_FoqiW-12" target="sauhUsJSyTyRgv_FoqiW-16">
          <mxGeometry relative="1" as="geometry" />
        </mxCell>
        <mxCell id="sauhUsJSyTyRgv_FoqiW-25" style="edgeStyle=orthogonalEdgeStyle;rounded=0;orthogonalLoop=1;jettySize=auto;html=1;entryX=0.5;entryY=0;entryDx=0;entryDy=0;" edge="1" parent="WIyWlLk6GJQsqaUBKTNV-1" source="sauhUsJSyTyRgv_FoqiW-12" target="sauhUsJSyTyRgv_FoqiW-20">
          <mxGeometry relative="1" as="geometry" />
        </mxCell>
        <mxCell id="sauhUsJSyTyRgv_FoqiW-41" style="edgeStyle=orthogonalEdgeStyle;rounded=0;orthogonalLoop=1;jettySize=auto;html=1;entryX=0;entryY=0.5;entryDx=0;entryDy=0;" edge="1" parent="WIyWlLk6GJQsqaUBKTNV-1" source="sauhUsJSyTyRgv_FoqiW-12" target="sauhUsJSyTyRgv_FoqiW-38">
          <mxGeometry relative="1" as="geometry" />
        </mxCell>
        <mxCell id="sauhUsJSyTyRgv_FoqiW-12" value="Animal" style="swimlane;fontStyle=1;align=center;verticalAlign=top;childLayout=stackLayout;horizontal=1;startSize=26;horizontalStack=0;resizeParent=1;resizeParentMax=0;resizeLast=0;collapsible=1;marginBottom=0;whiteSpace=wrap;html=1;" vertex="1" parent="WIyWlLk6GJQsqaUBKTNV-1">
          <mxGeometry x="-70" y="348" width="160" height="158" as="geometry" />
        </mxCell>
        <mxCell id="sauhUsJSyTyRgv_FoqiW-13" value="+ nombre: string&lt;br&gt;+ edad: int&lt;br&gt;+ dueño: Dueño" style="text;strokeColor=none;fillColor=none;align=left;verticalAlign=top;spacingLeft=4;spacingRight=4;overflow=hidden;rotatable=0;points=[[0,0.5],[1,0.5]];portConstraint=eastwest;whiteSpace=wrap;html=1;" vertex="1" parent="sauhUsJSyTyRgv_FoqiW-12">
          <mxGeometry y="26" width="160" height="54" as="geometry" />
        </mxCell>
        <mxCell id="sauhUsJSyTyRgv_FoqiW-14" value="" style="line;strokeWidth=1;fillColor=none;align=left;verticalAlign=middle;spacingTop=-1;spacingLeft=3;spacingRight=3;rotatable=0;labelPosition=right;points=[];portConstraint=eastwest;strokeColor=inherit;" vertex="1" parent="sauhUsJSyTyRgv_FoqiW-12">
          <mxGeometry y="80" width="160" height="8" as="geometry" />
        </mxCell>
        <mxCell id="sauhUsJSyTyRgv_FoqiW-15" value="+ method(type): type" style="text;strokeColor=none;fillColor=none;align=left;verticalAlign=top;spacingLeft=4;spacingRight=4;overflow=hidden;rotatable=0;points=[[0,0.5],[1,0.5]];portConstraint=eastwest;whiteSpace=wrap;html=1;" vertex="1" parent="sauhUsJSyTyRgv_FoqiW-12">
          <mxGeometry y="88" width="160" height="70" as="geometry" />
        </mxCell>
        <mxCell id="sauhUsJSyTyRgv_FoqiW-16" value="Comun" style="swimlane;fontStyle=1;align=center;verticalAlign=top;childLayout=stackLayout;horizontal=1;startSize=26;horizontalStack=0;resizeParent=1;resizeParentMax=0;resizeLast=0;collapsible=1;marginBottom=0;whiteSpace=wrap;html=1;" vertex="1" parent="WIyWlLk6GJQsqaUBKTNV-1">
          <mxGeometry x="-220" y="690" width="160" height="94" as="geometry" />
        </mxCell>
        <mxCell id="sauhUsJSyTyRgv_FoqiW-17" value="+ raza: string&lt;br&gt;+ tipo: string" style="text;strokeColor=none;fillColor=none;align=left;verticalAlign=top;spacingLeft=4;spacingRight=4;overflow=hidden;rotatable=0;points=[[0,0.5],[1,0.5]];portConstraint=eastwest;whiteSpace=wrap;html=1;" vertex="1" parent="sauhUsJSyTyRgv_FoqiW-16">
          <mxGeometry y="26" width="160" height="34" as="geometry" />
        </mxCell>
        <mxCell id="sauhUsJSyTyRgv_FoqiW-18" value="" style="line;strokeWidth=1;fillColor=none;align=left;verticalAlign=middle;spacingTop=-1;spacingLeft=3;spacingRight=3;rotatable=0;labelPosition=right;points=[];portConstraint=eastwest;strokeColor=inherit;" vertex="1" parent="sauhUsJSyTyRgv_FoqiW-16">
          <mxGeometry y="60" width="160" height="8" as="geometry" />
        </mxCell>
        <mxCell id="sauhUsJSyTyRgv_FoqiW-19" value="+ method(type): type" style="text;strokeColor=none;fillColor=none;align=left;verticalAlign=top;spacingLeft=4;spacingRight=4;overflow=hidden;rotatable=0;points=[[0,0.5],[1,0.5]];portConstraint=eastwest;whiteSpace=wrap;html=1;" vertex="1" parent="sauhUsJSyTyRgv_FoqiW-16">
          <mxGeometry y="68" width="160" height="26" as="geometry" />
        </mxCell>
        <mxCell id="sauhUsJSyTyRgv_FoqiW-20" value="Exotico" style="swimlane;fontStyle=1;align=center;verticalAlign=top;childLayout=stackLayout;horizontal=1;startSize=26;horizontalStack=0;resizeParent=1;resizeParentMax=0;resizeLast=0;collapsible=1;marginBottom=0;whiteSpace=wrap;html=1;" vertex="1" parent="WIyWlLk6GJQsqaUBKTNV-1">
          <mxGeometry x="60" y="690" width="160" height="94" as="geometry" />
        </mxCell>
        <mxCell id="sauhUsJSyTyRgv_FoqiW-21" value="+ tipo: string&lt;br&gt;+ tamaño: string" style="text;strokeColor=none;fillColor=none;align=left;verticalAlign=top;spacingLeft=4;spacingRight=4;overflow=hidden;rotatable=0;points=[[0,0.5],[1,0.5]];portConstraint=eastwest;whiteSpace=wrap;html=1;" vertex="1" parent="sauhUsJSyTyRgv_FoqiW-20">
          <mxGeometry y="26" width="160" height="34" as="geometry" />
        </mxCell>
        <mxCell id="sauhUsJSyTyRgv_FoqiW-22" value="" style="line;strokeWidth=1;fillColor=none;align=left;verticalAlign=middle;spacingTop=-1;spacingLeft=3;spacingRight=3;rotatable=0;labelPosition=right;points=[];portConstraint=eastwest;strokeColor=inherit;" vertex="1" parent="sauhUsJSyTyRgv_FoqiW-20">
          <mxGeometry y="60" width="160" height="8" as="geometry" />
        </mxCell>
        <mxCell id="sauhUsJSyTyRgv_FoqiW-23" value="+ method(type): type" style="text;strokeColor=none;fillColor=none;align=left;verticalAlign=top;spacingLeft=4;spacingRight=4;overflow=hidden;rotatable=0;points=[[0,0.5],[1,0.5]];portConstraint=eastwest;whiteSpace=wrap;html=1;" vertex="1" parent="sauhUsJSyTyRgv_FoqiW-20">
          <mxGeometry y="68" width="160" height="26" as="geometry" />
        </mxCell>
        <mxCell id="sauhUsJSyTyRgv_FoqiW-26" style="edgeStyle=orthogonalEdgeStyle;rounded=0;orthogonalLoop=1;jettySize=auto;html=1;entryX=0.5;entryY=0;entryDx=0;entryDy=0;" edge="1" parent="WIyWlLk6GJQsqaUBKTNV-1" source="sauhUsJSyTyRgv_FoqiW-8" target="sauhUsJSyTyRgv_FoqiW-28">
          <mxGeometry relative="1" as="geometry" />
        </mxCell>
        <mxCell id="sauhUsJSyTyRgv_FoqiW-28" value="Dueño" style="swimlane;fontStyle=1;align=center;verticalAlign=top;childLayout=stackLayout;horizontal=1;startSize=26;horizontalStack=0;resizeParent=1;resizeParentMax=0;resizeLast=0;collapsible=1;marginBottom=0;whiteSpace=wrap;html=1;" vertex="1" parent="WIyWlLk6GJQsqaUBKTNV-1">
          <mxGeometry x="-340" y="310" width="160" height="124" as="geometry" />
        </mxCell>
        <mxCell id="sauhUsJSyTyRgv_FoqiW-29" value="+ nombre: string&lt;br&gt;+ rut: string&lt;br&gt;+ telefono: int&lt;br&gt;+ mascotas: Animal[]" style="text;strokeColor=none;fillColor=none;align=left;verticalAlign=top;spacingLeft=4;spacingRight=4;overflow=hidden;rotatable=0;points=[[0,0.5],[1,0.5]];portConstraint=eastwest;whiteSpace=wrap;html=1;" vertex="1" parent="sauhUsJSyTyRgv_FoqiW-28">
          <mxGeometry y="26" width="160" height="64" as="geometry" />
        </mxCell>
        <mxCell id="sauhUsJSyTyRgv_FoqiW-30" value="" style="line;strokeWidth=1;fillColor=none;align=left;verticalAlign=middle;spacingTop=-1;spacingLeft=3;spacingRight=3;rotatable=0;labelPosition=right;points=[];portConstraint=eastwest;strokeColor=inherit;" vertex="1" parent="sauhUsJSyTyRgv_FoqiW-28">
          <mxGeometry y="90" width="160" height="8" as="geometry" />
        </mxCell>
        <mxCell id="sauhUsJSyTyRgv_FoqiW-31" value="+ method(type): type" style="text;strokeColor=none;fillColor=none;align=left;verticalAlign=top;spacingLeft=4;spacingRight=4;overflow=hidden;rotatable=0;points=[[0,0.5],[1,0.5]];portConstraint=eastwest;whiteSpace=wrap;html=1;" vertex="1" parent="sauhUsJSyTyRgv_FoqiW-28">
          <mxGeometry y="98" width="160" height="26" as="geometry" />
        </mxCell>
        <mxCell id="sauhUsJSyTyRgv_FoqiW-32" style="edgeStyle=orthogonalEdgeStyle;rounded=0;orthogonalLoop=1;jettySize=auto;html=1;exitX=1;exitY=0.5;exitDx=0;exitDy=0;entryX=0;entryY=0.5;entryDx=0;entryDy=0;" edge="1" parent="WIyWlLk6GJQsqaUBKTNV-1" source="sauhUsJSyTyRgv_FoqiW-29" target="sauhUsJSyTyRgv_FoqiW-12">
          <mxGeometry relative="1" as="geometry">
            <mxPoint x="-125" y="320" as="sourcePoint" />
            <mxPoint x="-110" y="440" as="targetPoint" />
          </mxGeometry>
        </mxCell>
        <mxCell id="sauhUsJSyTyRgv_FoqiW-33" value="Medicamento" style="swimlane;fontStyle=1;align=center;verticalAlign=top;childLayout=stackLayout;horizontal=1;startSize=26;horizontalStack=0;resizeParent=1;resizeParentMax=0;resizeLast=0;collapsible=1;marginBottom=0;whiteSpace=wrap;html=1;" vertex="1" parent="WIyWlLk6GJQsqaUBKTNV-1">
          <mxGeometry x="340" y="610" width="160" height="114" as="geometry" />
        </mxCell>
        <mxCell id="sauhUsJSyTyRgv_FoqiW-34" value="+ codigo: int&lt;br&gt;+ nombre: string&lt;br&gt;+ precio: int" style="text;strokeColor=none;fillColor=none;align=left;verticalAlign=top;spacingLeft=4;spacingRight=4;overflow=hidden;rotatable=0;points=[[0,0.5],[1,0.5]];portConstraint=eastwest;whiteSpace=wrap;html=1;" vertex="1" parent="sauhUsJSyTyRgv_FoqiW-33">
          <mxGeometry y="26" width="160" height="54" as="geometry" />
        </mxCell>
        <mxCell id="sauhUsJSyTyRgv_FoqiW-35" value="" style="line;strokeWidth=1;fillColor=none;align=left;verticalAlign=middle;spacingTop=-1;spacingLeft=3;spacingRight=3;rotatable=0;labelPosition=right;points=[];portConstraint=eastwest;strokeColor=inherit;" vertex="1" parent="sauhUsJSyTyRgv_FoqiW-33">
          <mxGeometry y="80" width="160" height="8" as="geometry" />
        </mxCell>
        <mxCell id="sauhUsJSyTyRgv_FoqiW-36" value="+ method(type): type" style="text;strokeColor=none;fillColor=none;align=left;verticalAlign=top;spacingLeft=4;spacingRight=4;overflow=hidden;rotatable=0;points=[[0,0.5],[1,0.5]];portConstraint=eastwest;whiteSpace=wrap;html=1;" vertex="1" parent="sauhUsJSyTyRgv_FoqiW-33">
          <mxGeometry y="88" width="160" height="26" as="geometry" />
        </mxCell>
        <mxCell id="sauhUsJSyTyRgv_FoqiW-27" style="edgeStyle=orthogonalEdgeStyle;rounded=0;orthogonalLoop=1;jettySize=auto;html=1;entryX=0.5;entryY=0;entryDx=0;entryDy=0;exitX=0.526;exitY=1;exitDx=0;exitDy=0;exitPerimeter=0;" edge="1" parent="WIyWlLk6GJQsqaUBKTNV-1" source="sauhUsJSyTyRgv_FoqiW-40" target="sauhUsJSyTyRgv_FoqiW-33">
          <mxGeometry relative="1" as="geometry">
            <mxPoint x="500" y="490" as="targetPoint" />
            <mxPoint x="650" y="550" as="sourcePoint" />
          </mxGeometry>
        </mxCell>
        <mxCell id="sauhUsJSyTyRgv_FoqiW-37" value="Consulta" style="swimlane;fontStyle=1;align=center;verticalAlign=top;childLayout=stackLayout;horizontal=1;startSize=26;horizontalStack=0;resizeParent=1;resizeParentMax=0;resizeLast=0;collapsible=1;marginBottom=0;whiteSpace=wrap;html=1;" vertex="1" parent="WIyWlLk6GJQsqaUBKTNV-1">
          <mxGeometry x="590" y="320" width="190" height="134" as="geometry" />
        </mxCell>
        <mxCell id="sauhUsJSyTyRgv_FoqiW-38" value="+ correlativo: int&lt;br&gt;+ fecha: string&lt;br&gt;+ diagnostcio: string&lt;br&gt;+ medicamentos: medicamento&lt;br&gt;+ pago: int" style="text;strokeColor=none;fillColor=none;align=left;verticalAlign=top;spacingLeft=4;spacingRight=4;overflow=hidden;rotatable=0;points=[[0,0.5],[1,0.5]];portConstraint=eastwest;whiteSpace=wrap;html=1;" vertex="1" parent="sauhUsJSyTyRgv_FoqiW-37">
          <mxGeometry y="26" width="190" height="74" as="geometry" />
        </mxCell>
        <mxCell id="sauhUsJSyTyRgv_FoqiW-39" value="" style="line;strokeWidth=1;fillColor=none;align=left;verticalAlign=middle;spacingTop=-1;spacingLeft=3;spacingRight=3;rotatable=0;labelPosition=right;points=[];portConstraint=eastwest;strokeColor=inherit;" vertex="1" parent="sauhUsJSyTyRgv_FoqiW-37">
          <mxGeometry y="100" width="190" height="8" as="geometry" />
        </mxCell>
        <mxCell id="sauhUsJSyTyRgv_FoqiW-40" value="+ method(type): type" style="text;strokeColor=none;fillColor=none;align=left;verticalAlign=top;spacingLeft=4;spacingRight=4;overflow=hidden;rotatable=0;points=[[0,0.5],[1,0.5]];portConstraint=eastwest;whiteSpace=wrap;html=1;" vertex="1" parent="sauhUsJSyTyRgv_FoqiW-37">
          <mxGeometry y="108" width="190" height="26" as="geometry" />
        </mxCell>
        <mxCell id="sauhUsJSyTyRgv_FoqiW-43" value="Text" style="text;html=1;align=center;verticalAlign=middle;resizable=0;points=[];autosize=1;strokeColor=none;fillColor=none;" vertex="1" parent="WIyWlLk6GJQsqaUBKTNV-1">
          <mxGeometry x="80" y="290" width="50" height="30" as="geometry" />
        </mxCell>
      </root>
    </mxGraphModel>
  </diagram>
</mxfile>
